<svg width="28" height="23" viewBox="0 0 28 23" fill="none" xmlns="http://www.w3.org/2000/svg">
<rect width="28" height="23" fill="white"/>
<rect x="1" y="2" width="26" height="20" fill="black"/>
<path d="M1 2H27C27 2 24 8.5 10.5 10.5C5.01956 11.3119 1 17 1 17V2Z" fill="url(#paint0_linear_1257_868)" fill-opacity="0.4"/>
<path d="M8.00359 7.87031C7.87604 7.87031 7.76671 7.82681 7.6756 7.7398C7.5845 7.65144 7.53965 7.54541 7.54105 7.4217C7.53965 7.29935 7.5845 7.19467 7.6756 7.10767C7.76671 7.02066 7.87604 6.97716 8.00359 6.97716C8.12693 6.97716 8.23416 7.02066 8.32526 7.10767C8.41777 7.19467 8.46473 7.29935 8.46613 7.4217C8.46473 7.50462 8.4423 7.58007 8.39885 7.64804C8.3568 7.71601 8.30073 7.77039 8.23065 7.81117C8.16197 7.8506 8.08628 7.87031 8.00359 7.87031ZM8.00359 5.80057C7.87604 5.80057 7.76671 5.75707 7.6756 5.67007C7.5845 5.5817 7.53965 5.47567 7.54105 5.35196C7.53965 5.22961 7.5845 5.12493 7.6756 5.03793C7.76671 4.94957 7.87604 4.90538 8.00359 4.90538C8.12693 4.90538 8.23416 4.94957 8.32526 5.03793C8.41777 5.12493 8.46473 5.22961 8.46613 5.35196C8.46473 5.43352 8.4423 5.50829 8.39885 5.57626C8.3568 5.64424 8.30073 5.69861 8.23065 5.7394C8.16197 5.78018 8.08628 5.80057 8.00359 5.80057Z" fill="white"/>
<path d="M10.4023 9L9.01468 4H9.68116L11.0688 9H10.4023Z" fill="white"/>
<path d="M13.9999 8.37194V8.96126H12.2184V8.37194H13.9999Z" fill="white"/>
<path d="M5.84619 6.09962H5.25645C5.23963 6.00582 5.20862 5.92272 5.16342 5.85033C5.11822 5.77692 5.06198 5.71473 4.9947 5.66375C4.92742 5.61277 4.85068 5.57453 4.76448 5.54905C4.67933 5.52254 4.58735 5.50928 4.48853 5.50928C4.31298 5.50928 4.1574 5.5521 4.02179 5.63775C3.88618 5.72237 3.78001 5.84676 3.70327 6.01092C3.62653 6.17405 3.58816 6.37338 3.58816 6.6089C3.58816 6.8485 3.62653 7.05038 3.70327 7.21453C3.78106 7.37767 3.88723 7.50104 4.02179 7.58464C4.1574 7.66723 4.31245 7.70852 4.48696 7.70852C4.58367 7.70852 4.67408 7.69629 4.75817 7.67182C4.84332 7.64633 4.91954 7.60911 4.98682 7.56017C5.05514 7.51123 5.11244 7.45108 5.15869 7.37971C5.206 7.30834 5.23858 7.22677 5.25645 7.13501L5.84619 7.13807C5.82412 7.28692 5.77629 7.42661 5.7027 7.55711C5.63016 7.68762 5.53503 7.80283 5.41729 7.90275C5.29955 8.00165 5.16184 8.07914 5.00416 8.13522C4.84648 8.19028 4.67145 8.2178 4.47907 8.2178C4.19524 8.2178 3.9419 8.15408 3.71904 8.02663C3.49618 7.89918 3.32062 7.71515 3.19237 7.47453C3.06412 7.23391 3 6.94536 3 6.6089C3 6.27142 3.06465 5.98288 3.19395 5.74328C3.32325 5.50265 3.49933 5.31862 3.72219 5.19117C3.94505 5.06372 4.19735 5 4.47907 5C4.65883 5 4.82598 5.02447 4.98051 5.07341C5.13504 5.12235 5.27275 5.19423 5.39364 5.28905C5.51453 5.38285 5.61387 5.49807 5.69166 5.63469C5.7705 5.7703 5.82201 5.92527 5.84619 6.09962Z" fill="white"/>
<defs>
<linearGradient id="paint0_linear_1257_868" x1="10.5" y1="-5.41027e-08" x2="17" y2="13.5" gradientUnits="userSpaceOnUse">
<stop stop-color="white"/>
<stop offset="1" stop-color="white" stop-opacity="0"/>
</linearGradient>
</defs>
</svg>
